<svg viewBox="0 0 32 32" xmlns="http://www.w3.org/2000/svg" aria-hidden="true"
                                            role="presentation" focusable="false"
                                            style="display: block; height: 24px; width: 24px; fill: currentcolor;">
                                            <path
                                                d="M20 8a2 2 0 0 1 1.995 1.85L22 10v2h3.34a2 2 0 0 1 1.77 1.069l.069.143 2.578 6.017a3 3 0 0 1 .233.938l.01.244V28a2 2 0 0 1-1.85 1.995L28 30H4a2 2 0 0 1-1.995-1.85L2 28v-7.59a3 3 0 0 1 .156-.954l.087-.227 2.578-6.017a2 2 0 0 1 1.68-1.206L6.659 12H10v-2a2 2 0 0 1 1.85-1.995L12 8zm8 14H4v6h24zm-6-8a2 2 0 0 1-1.85 1.995L20 16h-8a2 2 0 0 1-1.995-1.85L10 14H6.66l-2.573 6h23.825l-2.572-6zm-2-4h-8v4h8z">
                                            </path>
                                        </svg>